# xmcd CD database file
#
# Track frame offsets:
#	150
#	5077
#	22883
#	49756
#	67196
#	78416
#	101036
#	121260
#	146001
#	170594
#	190609
#	212528
#
# Disc length: 3162 seconds
#
# Revision: 0
# Processed by: cddbd v1.5.1PL0 Copyright (c) Steve Scherf et al.
# Submitted via: CDex 1.51
#
DISCID=a20c580c
DTITLE=MASTERMIND - To The World Beyond
DYEAR=1900
DGENRE=メタル (一般)
TTITLE0=Calling
TTITLE1=Over Enough
TTITLE2=Loud&Proud
TTITLE3=Reach For The Sky
TTITLE4=Angelude
TTITLE5=Devil In My Heart
TTITLE6=Here I Am
TTITLE7=Freedom Fighter
TTITLE8=Under Fire(I Want To Cry For You)
TTITLE9=Without Mercy
TTITLE10=Heaven Or Hell
TTITLE11=Eye Of The Riot
EXTD=
EXTT0=
EXTT1=
EXTT2=
EXTT3=
EXTT4=
EXTT5=
EXTT6=
EXTT7=
EXTT8=
EXTT9=
EXTT10=
EXTT11=
PLAYORDER=
